<svg version="1.1" id="Layer_1" xmlns="http://www.w3.org/2000/svg" xmlns:xlink="http://www.w3.org/1999/xlink" x="0px" y="0px"
     width="100%" viewBox="0 0 601 72" enable-background="new 0 0 601 72" xml:space="preserve">
<path fill="#FBFBFB" opacity="0.000000" stroke="none"
      d="
M457.000000,73.000000
	C304.666656,73.000000 152.833328,73.000000 1.000000,73.000000
	C1.000000,49.000000 1.000000,25.000000 1.000000,1.000000
	C201.333328,1.000000 401.666656,1.000000 602.000000,1.000000
	C602.000000,25.000000 602.000000,49.000000 602.000000,73.000000
	C553.833313,73.000000 505.666656,73.000000 457.000000,73.000000
M209.500000,3.954355
	C184.508224,3.954367 159.516464,3.954381 134.524689,3.954390
	C97.370026,3.954405 60.215366,3.959648 23.060713,3.943550
	C20.366032,3.942383 17.897776,3.731120 16.460884,6.982217
	C12.495055,15.955259 8.110861,24.744501 4.211142,33.744659
	C3.489228,35.410763 3.692183,37.966286 4.436040,39.694843
	C7.787536,47.482979 11.760887,55.009750 14.958142,62.855652
	C16.844872,67.485588 19.258038,69.213142 24.525522,69.208359
	C208.799149,69.041084 393.072968,69.068703 577.346741,69.068306
	C578.679626,69.068298 580.133423,69.397560 581.313721,68.971596
	C582.679749,68.478592 584.358948,67.592590 584.946289,66.404602
	C589.148621,57.904606 593.270142,49.354462 597.028503,40.652340
	C597.961731,38.491497 598.321350,35.371689 597.480164,33.282322
	C594.316345,25.424124 590.330261,17.899473 587.087708,10.069530
	C585.180542,5.464213 582.618164,3.803874 577.381165,3.811764
	C455.087677,3.995992 332.793793,3.954291 209.500000,3.954355
z"/>
    <path fill="#D7D7D7" opacity="1.000000" stroke="none"
          d="
M210.000000,3.954297
	C332.793793,3.954291 455.087677,3.995992 577.381165,3.811764
	C582.618164,3.803874 585.180542,5.464213 587.087708,10.069530
	C590.330261,17.899473 594.316345,25.424124 597.480164,33.282322
	C598.321350,35.371689 597.961731,38.491497 597.028503,40.652340
	C593.270142,49.354462 589.148621,57.904606 584.946289,66.404602
	C584.358948,67.592590 582.679749,68.478592 581.313721,68.971596
	C580.133423,69.397560 578.679626,69.068298 577.346741,69.068306
	C393.072968,69.068703 208.799149,69.041084 24.525522,69.208359
	C19.258038,69.213142 16.844872,67.485588 14.958142,62.855652
	C11.760887,55.009750 7.787536,47.482979 4.436040,39.694843
	C3.692183,37.966286 3.489228,35.410763 4.211142,33.744659
	C8.110861,24.744501 12.495055,15.955259 16.460884,6.982217
	C17.897776,3.731120 20.366032,3.942383 23.060713,3.943550
	C60.215366,3.959648 97.370026,3.954405 134.524689,3.954390
	C159.516464,3.954381 184.508224,3.954367 210.000000,3.954297
M419.500000,5.968649
	C288.006317,5.968662 156.512604,5.985570 25.018988,5.887781
	C21.040583,5.884822 18.667843,6.803572 17.004910,10.684861
	C13.664248,18.481972 9.664480,25.994963 6.228441,33.754387
	C5.538701,35.311996 5.567621,37.698067 6.255503,39.268330
	C9.460124,46.583698 13.517962,53.560471 16.269550,61.027256
	C18.234179,66.358513 21.298532,67.161461 26.368025,67.157974
	C209.359116,67.032066 392.350311,67.052322 575.341492,67.052238
	C576.674744,67.052238 578.139160,67.402611 579.309814,66.965988
	C580.966003,66.348251 583.117126,65.513252 583.820312,64.138618
	C587.987976,55.991459 591.933044,47.720806 595.616516,39.343689
	C596.362610,37.646797 596.282043,35.046238 595.528503,33.323318
	C592.195435,25.702728 588.258362,18.344135 584.991211,10.697869
	C583.338928,6.830742 580.984619,5.873731 576.992310,5.883541
	C524.828430,6.011705 472.664154,5.968611 419.500000,5.968649
z"/>
    <path fill="#FFFFFF" opacity="1.000000" stroke="none"
          d="
M420.000000,5.968609
	C472.664154,5.968611 524.828430,6.011705 576.992310,5.883541
	C580.984619,5.873731 583.338928,6.830742 584.991211,10.697869
	C588.258362,18.344135 592.195435,25.702728 595.528503,33.323318
	C596.282043,35.046238 596.362610,37.646797 595.616516,39.343689
	C591.933044,47.720806 587.987976,55.991459 583.820312,64.138618
	C583.117126,65.513252 580.966003,66.348251 579.309814,66.965988
	C578.139160,67.402611 576.674744,67.052238 575.341492,67.052238
	C392.350311,67.052322 209.359116,67.032066 26.368025,67.157974
	C21.298532,67.161461 18.234179,66.358513 16.269550,61.027256
	C13.517962,53.560471 9.460124,46.583698 6.255503,39.268330
	C5.567621,37.698067 5.538701,35.311996 6.228441,33.754387
	C9.664480,25.994963 13.664248,18.481972 17.004910,10.684861
	C18.667843,6.803572 21.040583,5.884822 25.018988,5.887781
	C156.512604,5.985570 288.006317,5.968662 420.000000,5.968609
z"/>
</svg>